<svg   fill="none" xmlns="http://www.w3.org/2000/svg">
    <path d="M36.12 40.88C36.12 42.1333 36.4 43 36.96 43.48C37.5467 43.9333 38.5467 44.16 39.96 44.16V45C37.08 44.8933 35.24 44.84 34.44 44.84C33.6933 44.84 31.96 44.88 29.24 44.96L28.28 45V44.16C29.6933 44.16 30.7467 43.92 31.44 43.44C32.16 42.96 32.52 42.1067 32.52 40.88V31.2C32.52 29.92 32.3867 28.9867 32.12 28.4C31.8533 27.7867 31.4 27.3867 30.76 27.2C30.1467 26.9867 29.1867 26.88 27.88 26.88V26C29.8267 25.9467 31.4267 25.7733 32.68 25.48C33.96 25.1867 35.1067 24.68 36.12 23.96V40.88Z" fill="white"/>
    <circle cx="33" cy="34.7622" r="32.5" stroke="white"/>
    <path fill-rule="evenodd" clip-rule="evenodd" d="M64.9716 20.8874C59.6911 8.60265 47.4807 0 33.2611 0C31.7753 0 30.3114 0.0939298 28.875 0.276175L28.875 3.30292C30.3084 3.10323 31.7727 3 33.2611 3C45.7825 3 56.5976 10.3059 61.676 20.8874H64.9716Z" fill="#FFB800"/>
</svg>


<svg   fill="none" xmlns="http://www.w3.org/2000/svg">
    <path d="M227.76 25.84C229.627 25.84 231.093 26.28 232.16 27.16C233.227 28.04 233.76 29.28 233.76 30.88C233.76 31.9733 233.467 33.04 232.88 34.08C232.32 35.0933 231.627 36.0267 230.8 36.88C230 37.7333 228.933 38.76 227.6 39.96C226.507 40.9733 225.693 41.7467 225.16 42.28C224.627 42.7867 224.147 43.3333 223.72 43.92H231.84C232.56 43.92 233.093 43.8667 233.44 43.76C233.813 43.6267 234.067 43.4267 234.2 43.16C234.333 42.8667 234.44 42.44 234.52 41.88H235.2C235.2 44.3333 235.253 46.1067 235.36 47.2C234.773 47.0667 232.787 47 229.4 47H220.04V46.32C220.493 45.84 221.267 45.08 222.36 44.04C223.88 42.6267 225.147 41.36 226.16 40.24C227.173 39.0933 228.04 37.8 228.76 36.36C229.507 34.92 229.88 33.3867 229.88 31.76C229.88 28.88 228.547 27.44 225.88 27.44C223.693 27.44 221.907 28.6933 220.52 31.2L219.88 30.84C220.573 29.4 221.56 28.2133 222.84 27.28C224.12 26.32 225.76 25.84 227.76 25.84Z" fill="white"/>
    <circle cx="227" cy="35" r="32.5" stroke="white"/>
    <path fill-rule="evenodd" clip-rule="evenodd" d="M258.43 50.4333C260.802 45.7385 262.139 40.4313 262.139 34.812C262.139 15.6544 246.608 0.124023 227.451 0.124023C227.085 0.124023 226.721 0.129674 226.358 0.140891V3.14249C226.721 3.13021 227.085 3.12402 227.451 3.12402C244.951 3.12402 259.139 17.3112 259.139 34.812C259.139 39.9489 257.916 44.8004 255.747 49.0913L258.43 50.4333Z" fill="#FFB800"/>
</svg>
                    

<svg  width="1028" height="73" viewBox="0 0 1028 73" fill="none" xmlns="http://www.w3.org/2000/svg">
    <path d="M424.08 23.84C425.76 23.84 427.133 24.2533 428.2 25.08C429.293 25.9067 429.84 27.0133 429.84 28.4C429.84 29.8667 429.253 31.1867 428.08 32.36C426.933 33.5333 425.533 34.4133 423.88 35C425.933 35.0533 427.68 35.6 429.12 36.64C430.56 37.68 431.28 39.16 431.28 41.08C431.28 43 430.533 44.72 429.04 46.24C427.573 47.76 425.693 48.9333 423.4 49.76C421.133 50.6133 418.827 51.04 416.48 51.04V50.32C418.373 50.2667 420.16 49.8667 421.84 49.12C423.52 48.4 424.88 47.3467 425.92 45.96C426.96 44.6 427.48 42.9733 427.48 41.08C427.48 39.5067 427.093 38.2133 426.32 37.2C425.547 36.16 424.52 35.5867 423.24 35.48C423.133 35.5333 422.853 35.6533 422.4 35.84C421.973 36 421.627 36.08 421.36 36.08C420.933 36.08 420.72 35.9067 420.72 35.56C420.72 35.32 420.813 35.1333 421 35C421.213 34.8667 421.467 34.8 421.76 34.8C421.92 34.8 422.133 34.8267 422.4 34.88C422.693 34.9067 422.947 34.9333 423.16 34.96C424.2 34.16 424.973 33.2667 425.48 32.28C425.987 31.2933 426.24 30.2667 426.24 29.2C426.24 27.9733 425.933 27.0667 425.32 26.48C424.707 25.8933 423.853 25.6 422.76 25.6C421.64 25.6 420.627 25.9067 419.72 26.52C418.813 27.1067 418.053 27.9867 417.44 29.16L416.76 28.84C418.307 25.5067 420.747 23.84 424.08 23.84Z" fill="white"/>
    <circle cx="423" cy="37" r="32.5" stroke="white"/>
    <path fill-rule="evenodd" clip-rule="evenodd" d="M421.989 71.9408C422.355 71.9521 422.721 71.9578 423.09 71.9578C442.384 71.9578 458.025 56.3169 458.025 37.0229C458.025 17.7288 442.384 2.08789 423.09 2.08789C422.721 2.08789 422.355 2.09358 421.989 2.10489L421.989 5.10649C422.355 5.09412 422.721 5.08789 423.09 5.08789C440.727 5.08789 455.025 19.3857 455.025 37.0229C455.025 54.6601 440.727 68.9578 423.09 68.9578C422.721 68.9578 422.355 68.9516 421.989 68.9392L421.989 71.9408Z" fill="#FFB800"/>
</svg>


<svg  width="1028" height="73" viewBox="0 0 1028 73" fill="none" xmlns="http://www.w3.org/2000/svg">
    <path d="M623.32 45.04C622.973 44.96 621.64 44.8933 619.32 44.84V52.64H616.12V44.84H605.68V44L618.68 25.84H619.32V42.16H619.8C620.52 42.16 621.053 42.1067 621.4 42C621.773 41.8667 622.027 41.6667 622.16 41.4C622.293 41.1067 622.4 40.68 622.48 40.12H623.16C623.16 42.36 623.213 44 623.32 45.04ZM616.12 42.16V30.72L608.04 42.16H616.12Z" fill="white"/>
    <circle cx="616" cy="39" r="32.5" stroke="white"/>
    <path fill-rule="evenodd" clip-rule="evenodd" d="M585.81 53.3962C591.277 64.4451 602.665 72.0427 615.828 72.0427C634.314 72.0427 649.299 57.0568 649.299 38.5709C649.299 20.0849 634.314 5.09912 615.828 5.09912C615.476 5.09912 615.125 5.10455 614.776 5.11534L614.776 8.11694C615.125 8.10509 615.476 8.09912 615.828 8.09912C632.657 8.09912 646.299 21.7418 646.299 38.5709C646.299 55.4 632.657 69.0427 615.828 69.0427C604.218 69.0427 594.125 62.5503 588.981 52.9982L585.81 53.3962Z" fill="#FFB800"/>
</svg>
                
                
<svg  width="1028" height="73" viewBox="0 0 1028 73" fill="none" xmlns="http://www.w3.org/2000/svg">
    <path d="M809.36 23.4C809.36 26.12 809.413 28.0667 809.52 29.24C808.96 29.1067 807.107 29.04 803.96 29.04H799.72L799.24 36.76C799.987 36.3867 800.707 36.0933 801.4 35.88C802.093 35.6667 802.933 35.56 803.92 35.56C806.24 35.56 808 36.1333 809.2 37.28C810.4 38.4 811 39.88 811 41.72C811 43.6933 810.347 45.4533 809.04 47C807.76 48.5733 806.093 49.7867 804.04 50.64C802.013 51.4933 799.933 51.92 797.8 51.92V51.2C799.427 51.1733 800.947 50.8133 802.36 50.12C803.8 49.4267 804.96 48.4 805.84 47.04C806.747 45.68 807.2 44.04 807.2 42.12C807.2 40.44 806.76 39.1333 805.88 38.2C805 37.24 803.76 36.76 802.16 36.76C801.52 36.76 800.973 36.8133 800.52 36.92C800.067 37.0267 799.52 37.2 798.88 37.44L798.48 37.2L799.24 25.28C799.773 25.3867 800.493 25.44 801.4 25.44H805.92C806.64 25.44 807.173 25.3867 807.52 25.28C807.893 25.1467 808.147 24.9467 808.28 24.68C808.413 24.3867 808.52 23.96 808.6 23.4H809.36Z" fill="white"/>
    <circle cx="803.184" cy="36.5002" r="32.5" stroke="white"/>
    <path fill-rule="evenodd" clip-rule="evenodd" d="M774.187 17.9049C770.901 23.1324 769 29.3191 769 35.9497C769 54.6997 784.2 69.8995 802.95 69.8995C821.7 69.8995 836.899 54.6997 836.899 35.9497C836.899 17.1998 821.7 2 802.95 2C801.513 2 800.097 2.08925 798.707 2.26252L797.75 5.43486C799.441 5.1489 801.178 5 802.95 5C820.043 5 833.899 18.8567 833.899 35.9497C833.899 53.0428 820.043 66.8995 802.95 66.8995C785.857 66.8995 772 53.0428 772 35.9497C772 28.9937 774.295 22.5736 778.169 17.4053L774.187 17.9049Z" fill="#FFB800"/>
</svg>

<svg  width="1028" height="73" viewBox="0 0 1028 73" fill="none" xmlns="http://www.w3.org/2000/svg">
    <path d="M993.96 31.48C995.24 31.48 996.427 31.8267 997.52 32.52C998.613 33.2133 999.493 34.2267 1000.16 35.56C1000.83 36.8667 1001.16 38.4133 1001.16 40.2C1001.16 42.1467 1000.76 43.8267 999.96 45.24C999.187 46.6533 998.133 47.7333 996.8 48.48C995.467 49.2 993.987 49.56 992.36 49.56C989.8 49.56 987.8 48.56 986.36 46.56C984.92 44.56 984.2 41.7733 984.2 38.2C984.2 34.4667 984.907 31.3067 986.32 28.72C987.76 26.1067 989.507 24.12 991.56 22.76C993.613 21.3733 995.68 20.48 997.76 20.08L997.92 20.88C996.293 21.4133 994.827 22.1333 993.52 23.04C992.24 23.9467 991.107 25.3467 990.12 27.24C989.133 29.1333 988.507 31.6267 988.24 34.72C988.853 33.6 989.693 32.7867 990.76 32.28C991.827 31.7467 992.893 31.48 993.96 31.48ZM992.76 48.76C994.067 48.76 995.147 48.08 996 46.72C996.853 45.36 997.28 43.28 997.28 40.48C997.28 37.76 996.88 35.7733 996.08 34.52C995.28 33.2667 994.24 32.64 992.96 32.64C992.027 32.64 991.093 32.92 990.16 33.48C989.253 34.0133 988.573 34.88 988.12 36.08C988.093 36.5067 988.08 37.1867 988.08 38.12C988.08 41.96 988.533 44.6933 989.44 46.32C990.347 47.9467 991.453 48.76 992.76 48.76Z" fill="white"/>
    <circle cx="993" cy="35" r="32.5" stroke="white"/>
    <path fill-rule="evenodd" clip-rule="evenodd" d="M993.307 4.05371C975.94 4.05371 961.861 18.1327 961.861 35.5C961.861 52.8673 975.94 66.9463 993.307 66.9463C1010.67 66.9463 1024.75 52.8673 1024.75 35.5C1024.75 18.1327 1010.67 4.05371 993.307 4.05371ZM958.861 35.5C958.861 16.4758 974.283 1.05371 993.307 1.05371C1012.33 1.05371 1027.75 16.4758 1027.75 35.5C1027.75 54.5241 1012.33 69.9463 993.307 69.9463C974.283 69.9463 958.861 54.5241 958.861 35.5Z" fill="#FFB800"/>
</svg>